<svg width="121" height="121" viewBox="0 0 121 121" fill="none" xmlns="http://www.w3.org/2000/svg">
<rect width="120.555" height="120.555" rx="10" fill="#0E1C0E"/>
<path d="M85.0218 38H34.7939C33.8031 38 33 38.8031 33 39.7939V45.7734C33 46.7641 33.8031 47.5672 34.7939 47.5672H85.0218C86.0125 47.5672 86.8156 46.7641 86.8156 45.7734V39.7939C86.8156 38.8031 86.0125 38 85.0218 38Z" stroke="#88E833" stroke-width="2.5" stroke-linecap="round" stroke-linejoin="round"/>
<path d="M85.0218 53.5469H34.7939C33.8031 53.5469 33 54.35 33 55.3407V61.3202C33 62.311 33.8031 63.1141 34.7939 63.1141H85.0218C86.0125 63.1141 86.8156 62.311 86.8156 61.3202V55.3407C86.8156 54.35 86.0125 53.5469 85.0218 53.5469Z" stroke="#88E833" stroke-width="2.5" stroke-linecap="round" stroke-linejoin="round"/>
<path d="M85.0218 69.0938H34.7939C33.8031 69.0938 33 69.8969 33 70.8876V76.8671C33 77.8578 33.8031 78.661 34.7939 78.661H85.0218C86.0125 78.661 86.8156 77.8578 86.8156 76.8671V70.8876C86.8156 69.8969 86.0125 69.0938 85.0218 69.0938Z" stroke="#88E833" stroke-width="2.5" stroke-linecap="round" stroke-linejoin="round"/>
</svg>
