<svg width="121" height="121" viewBox="0 0 121 121" fill="none" xmlns="http://www.w3.org/2000/svg">
<rect width="120.555" height="120.555" rx="10" fill="#0E1C0E"/>
<path d="M88.9468 43H33.2724C32.0174 43 31 44.0174 31 45.2724V77.0864C31 78.3414 32.0174 79.3588 33.2724 79.3588H88.9468C90.2019 79.3588 91.2193 78.3414 91.2193 77.0864V45.2724C91.2193 44.0174 90.2019 43 88.9468 43Z" stroke="#88E833" stroke-width="2.5" stroke-linecap="round" stroke-linejoin="round"/>
<path d="M31 54.3623H91.2193" stroke="#88E833" stroke-width="2.5" stroke-linecap="round" stroke-linejoin="round"/>
<path d="M84.9707 54.3623H71.3362C70.3949 54.3623 69.6318 55.1254 69.6318 56.0666V67.4287C69.6318 68.37 70.3949 69.1331 71.3362 69.1331H84.9707C85.912 69.1331 86.675 68.37 86.675 67.4287V56.0666C86.675 55.1254 85.912 54.3623 84.9707 54.3623Z" stroke="#88E833" stroke-width="2.5" stroke-linecap="round" stroke-linejoin="round"/>
</svg>
