<svg width="121" height="121" viewBox="0 0 121 121" fill="none" xmlns="http://www.w3.org/2000/svg">
<rect width="120.555" height="120.555" rx="10" fill="#0E1C0E"/>
<path d="M59.5874 30V86.1219" stroke="#88E833" stroke-width="2.5" stroke-linecap="round" stroke-linejoin="round"/>
<path d="M32.8308 45.6621H86.3424" stroke="#88E833" stroke-width="2.5" stroke-linecap="round" stroke-linejoin="round"/>
<path d="M32.8308 45.6621V60.0189" stroke="#88E833" stroke-width="2.5" stroke-linecap="round" stroke-linejoin="round"/>
<path d="M86.343 45.6621V60.0189" stroke="#88E833" stroke-width="2.5" stroke-linecap="round" stroke-linejoin="round"/>
<path d="M25 60.0186C30.2206 66.9794 35.4413 66.9794 40.6619 60.0186" stroke="#88E833" stroke-width="2.5" stroke-linecap="round" stroke-linejoin="round"/>
<path d="M78.512 60.0186C83.7326 66.9794 88.9532 66.9794 94.1739 60.0186" stroke="#88E833" stroke-width="2.5" stroke-linecap="round" stroke-linejoin="round"/>
<path d="M66.7657 86.1221H52.4089C51.6881 86.1221 51.1038 86.7064 51.1038 87.4272V88.7324C51.1038 89.4532 51.6881 90.0376 52.4089 90.0376H66.7657C67.4865 90.0376 68.0708 89.4532 68.0708 88.7324V87.4272C68.0708 86.7064 67.4865 86.1221 66.7657 86.1221Z" stroke="#88E833" stroke-width="2.5" stroke-linecap="round" stroke-linejoin="round"/>
</svg>
