<svg width="1309" height="290" viewBox="0 0 1309 290" fill="none" xmlns="http://www.w3.org/2000/svg">
<path d="M193.569 14.126H175.536C173.896 14.126 172.514 15.3402 172.309 16.9597C171.364 24.48 169.241 32.2459 166.002 40.0329L111.713 169.254L50.7198 29.3233C49.2251 25.9262 48.1681 22.0727 47.2883 16.8286C47.0278 15.2694 45.6709 14.126 44.0809 14.126H25.2637C24.1113 14.126 23.0452 14.7331 22.4621 15.7199C21.8776 16.7081 21.8625 17.9299 22.4213 18.9317C32.5567 37.0802 40.7145 53.4767 47.3655 69.0747L105.905 204.525C106.419 205.712 107.592 206.482 108.892 206.482H112.028C113.341 206.482 114.523 205.697 115.029 204.492L171.222 70.3281C178.25 53.3516 186.72 36.0648 196.399 18.9452C196.966 17.9434 196.955 16.7187 196.372 15.7259C195.789 14.7346 194.72 14.1245 193.565 14.1245L193.569 14.126Z" fill="#88E833"/>
<path d="M239.305 14.126H222.579C220.783 14.126 219.328 15.5737 219.328 17.3604V19.1802C219.328 19.2586 219.331 19.3369 219.337 19.4137C220.562 36.2366 221.159 53.6785 221.159 72.7475L221.421 143.971C221.421 160.613 220.74 178.055 219.339 197.292C219.333 197.371 219.33 197.448 219.33 197.526V199.346C219.33 201.132 220.785 202.58 222.581 202.58H239.307C241.103 202.58 242.558 201.132 242.558 199.346V197.526C242.558 197.448 242.555 197.371 242.549 197.292C241.148 178.059 240.467 160.617 240.467 143.971V72.7355C240.467 56.0874 241.148 38.6454 242.549 19.4122C242.555 19.3339 242.558 19.2571 242.558 19.1787V17.3589C242.558 15.5722 241.103 14.1245 239.307 14.1245L239.305 14.126Z" fill="#88E833"/>
<path d="M436.879 162.837H435.833C435.019 162.837 434.235 163.139 433.635 163.686L430.498 166.547C413.36 182.198 394.756 190.134 375.201 190.134C351.753 190.134 332.005 181.805 318.091 166.048C305.11 151.347 297.959 130.764 297.959 108.094C297.959 85.4248 304.954 64.3974 317.656 49.6911C331.16 34.0584 350.334 25.7939 373.11 25.7939C395.886 25.7939 411.415 32.7418 427.784 49.0253L430.92 52.1452C431.53 52.7523 432.356 53.0928 433.219 53.0928H434.264C436.06 53.0928 437.515 51.645 437.515 49.8584V30.8798C437.515 29.8147 436.988 28.8174 436.105 28.2148C419.881 17.1181 398.065 11.0063 374.678 11.0063C345.339 11.0063 320.64 20.4263 303.254 38.2464C286.304 55.6191 277.345 79.7725 277.345 108.094C277.345 136.416 286.397 160.081 303.522 177.526C321.114 195.449 345.9 204.921 375.201 204.921C398.586 204.921 421.43 198.758 437.897 188.001L438.681 187.481C439.587 186.881 440.13 185.871 440.13 184.789V166.069C440.13 164.283 438.675 162.835 436.879 162.835V162.837Z" fill="#88E833"/>
<path d="M606.227 14.126H466.41C464.614 14.126 463.159 15.5737 463.159 17.3604V32.9599C463.159 34.7466 464.614 36.1943 466.41 36.1943H468.762C469.005 36.1943 469.247 36.1672 469.483 36.1145C484.946 32.618 502.474 28.6559 520.769 28.6559H526.665V143.974C526.665 163.032 526.069 180.474 524.843 197.295C524.837 197.374 524.834 197.451 524.834 197.529V199.349C524.834 201.135 526.289 202.583 528.085 202.583H544.549C546.345 202.583 547.8 201.135 547.8 199.349V197.529C547.8 197.451 547.797 197.374 547.791 197.295C546.566 180.473 545.969 163.031 545.969 143.974V28.668C568.512 28.8548 580.639 31.0527 603.424 36.116C603.657 36.1672 603.894 36.1943 604.132 36.1943H606.224C608.02 36.1943 609.475 34.7466 609.475 32.9599V17.3604C609.475 15.5737 608.02 14.126 606.224 14.126H606.227Z" fill="#88E833"/>
<path d="M720.725 114.284C752.35 109.442 769.68 92.0605 769.68 64.9364C769.68 49.1892 764.35 36.8045 753.838 28.1287C742.577 18.8368 725.536 14.1245 703.184 14.1245H638.372C636.576 14.1245 635.121 15.5722 635.121 17.3589V19.1787C635.121 19.2405 635.122 19.3038 635.125 19.3655L635.172 20.1595C636.22 38.1543 637.21 55.1504 637.21 72.4748V143.971C637.21 160.613 636.529 178.055 635.128 197.292C635.122 197.371 635.119 197.448 635.119 197.526V199.346C635.119 201.132 636.574 202.58 638.37 202.58H655.096C656.892 202.58 658.348 201.132 658.348 199.346V197.526C658.348 197.448 658.345 197.371 658.339 197.292C656.938 178.055 656.256 160.613 656.256 143.971V115.747H699.053L735.995 173.026C741.824 181.987 746.649 191.242 750.336 200.534C750.827 201.77 752.025 202.582 753.36 202.582H771.916C773.106 202.582 774.201 201.935 774.77 200.896C775.34 199.856 775.294 198.591 774.649 197.597L720.722 114.284H720.725ZM656.259 28.6545H703.186C734.234 28.6545 749.328 40.5225 749.328 64.9379C749.328 76.3284 746.204 84.7586 739.778 90.7137C732.257 97.6857 719.945 101.22 703.186 101.22H656.259V28.6545Z" fill="#88E833"/>
<path d="M826.014 14.126H809.288C807.492 14.126 806.037 15.5737 806.037 17.3604V19.1802C806.037 19.2586 806.04 19.3369 806.046 19.4137C807.271 36.2366 807.868 53.6785 807.868 72.7475L808.13 143.971C808.13 160.613 807.448 178.055 806.048 197.292C806.042 197.371 806.039 197.448 806.039 197.526V199.346C806.039 201.132 807.494 202.58 809.29 202.58H826.016C827.812 202.58 829.267 201.132 829.267 199.346V197.526C829.267 197.448 829.264 197.371 829.258 197.292C827.857 178.059 827.176 160.617 827.176 143.971V72.7355C827.176 56.0874 827.857 38.6454 829.258 19.4122C829.264 19.3339 829.267 19.2571 829.267 19.1787V17.3589C829.267 15.5722 827.812 14.1245 826.016 14.1245L826.014 14.126Z" fill="#88E833"/>
<path d="M1016.38 197.238C1007.55 187.027 998.627 175.78 989.102 162.859L943.97 101.566L967.709 68.3576C978.939 52.4688 991.121 36.4519 1004.95 19.3911C1005.74 18.4209 1005.89 17.0892 1005.35 15.9654C1004.81 14.8416 1003.67 14.126 1002.42 14.126H983.605C982.257 14.126 981.049 14.953 980.567 16.2049C977.416 24.4032 973.261 32.1736 967.882 39.9304L933.901 87.7399L893.452 32.8665C893.44 32.8515 893.428 32.8349 893.415 32.8198C889.462 27.6571 886.163 22.16 883.331 16.0136C882.801 14.8641 881.647 14.1275 880.375 14.1275H860.513C859.244 14.1275 858.09 14.8626 857.559 16.0106C857.027 17.1585 857.218 18.5083 858.043 19.4679C865.311 27.9027 872.525 37.0214 880.107 47.3588L921.096 102.734L892.04 146.34C879.661 164.813 865.98 181.744 853.042 197.286C852.239 198.252 852.068 199.591 852.604 200.726C853.14 201.86 854.286 202.583 855.546 202.583H874.624C875.979 202.583 877.192 201.747 877.668 200.485C880.347 193.38 884.419 185.864 890.122 177.505L931.441 116.827L983.316 187.199C986.631 191.874 989.269 196.301 991.38 200.733C991.917 201.863 993.062 202.583 994.318 202.583H1013.92C1015.19 202.583 1016.34 201.846 1016.87 200.697C1017.4 199.548 1017.21 198.196 1016.38 197.238H1016.38Z" fill="#88E833"/>
<g clip-path="url(#clip0_146_229)">
<mask id="mask0_146_229" style="mask-type:luminance" maskUnits="userSpaceOnUse" x="1093" y="9" width="216" height="195">
<path d="M1308.18 9.63037H1093.76V203.618H1308.18V9.63037Z" fill="white"/>
</mask>
<g mask="url(#mask0_146_229)">
<path d="M1249.94 159.478H1274.23C1283.32 159.478 1289.63 155.319 1289.63 146.803C1289.63 138.287 1283.31 134.14 1274.23 134.14H1249.94V159.478ZM1249.94 203.618H1282.33C1299.5 203.618 1308.39 194.706 1308.39 177.488V159.478H1307.8C1302.86 174.517 1290.03 179.072 1274.82 179.072H1250.73C1250.14 179.072 1249.94 179.27 1249.94 179.864V203.618ZM1204.32 146.803L1229.2 170.952V122.654L1204.32 146.803ZM1119.82 203.618H1229.21V198.072C1229.21 188.368 1232.57 182.835 1240.28 179.864V179.27H1209.67C1208.09 179.27 1207.5 179.072 1206.31 177.884L1190.32 161.26L1173.74 178.082C1172.95 178.874 1172.36 179.27 1170.78 179.27H1146.09C1144.71 179.27 1144.71 178.478 1145.5 177.686L1177.1 147.001L1144.91 115.722C1144.12 114.93 1144.32 114.138 1145.7 114.138H1170.58C1171.96 114.138 1172.55 114.336 1173.34 115.326L1190.72 132.742L1207.1 115.326C1207.89 114.534 1208.48 114.138 1209.67 114.138H1274.63C1289.63 114.138 1302.86 119.089 1307.8 134.128H1308.39V35.7602C1308.39 18.5422 1299.5 9.63037 1282.33 9.63037H1119.82C1102.65 9.63037 1093.76 18.5422 1093.76 35.7602V177.686C1093.76 194.706 1102.65 203.618 1119.82 203.618Z" fill="#88E833"/>
</g>
</g>
<path d="M497.047 266.938C497.472 266.059 498.003 265.283 498.651 264.609C499.295 263.935 500.011 263.364 500.8 262.893C501.59 262.425 502.475 262.056 503.456 261.794C504.437 261.531 505.453 261.397 506.505 261.397C508.144 261.397 509.607 261.645 510.896 262.145C512.181 262.645 513.268 263.347 514.143 264.254C515.021 265.166 515.619 266.247 515.942 267.506H521.738C521.444 265.396 520.623 263.552 519.281 261.967C517.935 260.386 516.172 259.163 513.991 258.298C511.809 257.433 509.316 257 506.505 257C504.837 257 503.279 257.174 501.831 257.528C500.382 257.879 499.044 258.386 497.815 259.046C496.586 259.705 495.489 260.51 494.522 261.464C493.555 262.418 492.744 263.503 492.086 264.719C491.427 265.935 490.914 267.261 490.549 268.697C490.184 270.133 490 271.658 490 273.271C490 276.522 490.687 279.373 492.064 281.819C493.442 284.266 495.365 286.166 497.84 287.51C500.312 288.857 503.201 289.531 506.508 289.531C509.348 289.531 511.848 289.113 514.015 288.279C516.182 287.443 517.946 286.23 519.306 284.631C520.665 283.035 521.522 281.121 521.873 278.894H516.122C515.772 280.185 515.156 281.298 514.277 282.234C513.399 283.174 512.301 283.883 510.984 284.365C509.667 284.847 508.173 285.088 506.505 285.088C504.338 285.088 502.45 284.606 500.843 283.638C499.232 282.67 497.982 281.302 497.089 279.529C496.197 277.756 495.751 275.668 495.751 273.264C495.751 272.062 495.86 270.927 496.08 269.856C496.3 268.786 496.622 267.814 497.047 266.935V266.938Z" fill="#88E833"/>
<path d="M529.996 288.961H535.396L538.484 281.402H553.877L556.908 288.961H562.878L549.709 257.575H543.169L530 288.961H529.996ZM552.17 277.136H540.226L546.257 262.376L552.17 277.136Z" fill="#88E833"/>
<path d="M597.757 260.171C596.805 259.32 595.693 258.678 594.418 258.235C593.143 257.795 591.734 257.575 590.183 257.575H573.455V288.961H578.944V277.267H590.183C591.734 277.267 593.147 277.048 594.418 276.608C595.693 276.168 596.805 275.523 597.757 274.672C598.706 273.821 599.439 272.789 599.953 271.573C600.466 270.357 600.721 268.971 600.721 267.421C600.721 265.872 600.466 264.482 599.953 263.266C599.439 262.05 598.71 261.018 597.757 260.167V260.171ZM594.333 270.322C593.88 271.141 593.235 271.772 592.4 272.211C591.564 272.651 590.562 272.871 589.393 272.871H578.944V261.968H589.393C591.121 261.968 592.488 262.461 593.497 263.443C594.507 264.425 595.013 265.766 595.013 267.464C595.013 268.549 594.786 269.503 594.333 270.322Z" fill="#88E833"/>
<path d="M617.794 257.575H612.352V288.961H617.794V257.575Z" fill="#88E833"/>
<path d="M645.984 288.961V262.014H657.485V257.575H628.948V262.014H640.496V288.961H645.984Z" fill="#88E833"/>
<path d="M660.952 288.961H666.352L669.44 281.402H684.833L687.864 288.961H693.834L680.665 257.575H674.125L660.956 288.961H660.952ZM683.123 277.136H671.179L677.209 262.376L683.123 277.136Z" fill="#88E833"/>
<path d="M704.414 257.575V288.961H727.42V284.522H709.86V257.575H704.414Z" fill="#88E833"/>
<defs>
<clipPath id="clip0_146_229">
<rect width="214.624" height="193.987" fill="white" transform="translate(1093.76 9.63037)"/>
</clipPath>
</defs>
</svg>
