<svg width="63" height="39" viewBox="0 0 63 39" fill="none" xmlns="http://www.w3.org/2000/svg">
<path d="M59.1968 1.25H3.52243C2.2674 1.25 1.25 2.2674 1.25 3.52243V35.3364C1.25 36.5914 2.2674 37.6088 3.52243 37.6088H59.1968C60.4519 37.6088 61.4693 36.5914 61.4693 35.3364V3.52243C61.4693 2.2674 60.4519 1.25 59.1968 1.25Z" stroke="#262626" stroke-width="2.5" stroke-linecap="round" stroke-linejoin="round"/>
<path d="M1.25 12.6123H61.4693" stroke="#262626" stroke-width="2.5" stroke-linecap="round" stroke-linejoin="round"/>
<path d="M55.2207 12.6123H41.5862C40.6449 12.6123 39.8818 13.3754 39.8818 14.3166V25.6787C39.8818 26.62 40.6449 27.3831 41.5862 27.3831H55.2207C56.162 27.3831 56.925 26.62 56.925 25.6787V14.3166C56.925 13.3754 56.162 12.6123 55.2207 12.6123Z" stroke="#262626" stroke-width="2.5" stroke-linecap="round" stroke-linejoin="round"/>
</svg>
