<svg width="49" height="55" viewBox="0 0 49 55" fill="none" xmlns="http://www.w3.org/2000/svg">
<path d="M45.3364 23.8594H3.51084C2.26221 23.8594 1.25 24.8716 1.25 26.1202V50.9895C1.25 52.2381 2.26221 53.2503 3.51084 53.2503H45.3364C46.585 53.2503 47.5973 52.2381 47.5973 50.9895V26.1202C47.5973 24.8716 46.585 23.8594 45.3364 23.8594Z" stroke="#262626" stroke-width="2.5" stroke-linecap="round" stroke-linejoin="round"/>
<path d="M9.1626 23.8584V14.8151C9.1626 5.77168 14.2495 1.25 24.4233 1.25C34.5971 1.25 39.684 5.77168 39.684 14.8151V23.8584" stroke="#262626" stroke-width="2.5" stroke-linecap="round" stroke-linejoin="round"/>
<path d="M24.424 43.0746C26.9213 43.0746 28.9457 41.0502 28.9457 38.5529C28.9457 36.0557 26.9213 34.0312 24.424 34.0312C21.9268 34.0312 19.9023 36.0557 19.9023 38.5529C19.9023 41.0502 21.9268 43.0746 24.424 43.0746Z" stroke="#262626" stroke-width="2.5" stroke-linecap="round" stroke-linejoin="round"/>
</svg>
