<svg width="72" height="63" viewBox="0 0 72 63" fill="none" xmlns="http://www.w3.org/2000/svg">
<path d="M35.8374 1.25V57.3719" stroke="#262626" stroke-width="2.5" stroke-linecap="round" stroke-linejoin="round"/>
<path d="M9.08057 16.9121H62.5921" stroke="#262626" stroke-width="2.5" stroke-linecap="round" stroke-linejoin="round"/>
<path d="M9.08057 16.9121V31.2689" stroke="#262626" stroke-width="2.5" stroke-linecap="round" stroke-linejoin="round"/>
<path d="M62.5933 16.9121V31.2689" stroke="#262626" stroke-width="2.5" stroke-linecap="round" stroke-linejoin="round"/>
<path d="M1.25 31.2686C6.47064 38.2294 11.6913 38.2294 16.9119 31.2686" stroke="#262626" stroke-width="2.5" stroke-linecap="round" stroke-linejoin="round"/>
<path d="M54.7622 31.2686C59.9828 38.2294 65.2035 38.2294 70.4241 31.2686" stroke="#262626" stroke-width="2.5" stroke-linecap="round" stroke-linejoin="round"/>
<path d="M43.0154 57.3721H28.6587C27.9379 57.3721 27.3535 57.9564 27.3535 58.6772V59.9824C27.3535 60.7032 27.9379 61.2876 28.6587 61.2876H43.0154C43.7363 61.2876 44.3206 60.7032 44.3206 59.9824V58.6772C44.3206 57.9564 43.7363 57.3721 43.0154 57.3721Z" stroke="#262626" stroke-width="2.5" stroke-linecap="round" stroke-linejoin="round"/>
</svg>
