<svg width="56" height="56" viewBox="0 0 56 56" fill="none" xmlns="http://www.w3.org/2000/svg">
<path d="M27.5599 53.8697C42.0904 53.8697 53.8697 42.0904 53.8697 27.5599C53.8697 13.0293 42.0904 1.25 27.5599 1.25C13.0293 1.25 1.25 13.0293 1.25 27.5599C1.25 42.0904 13.0293 53.8697 27.5599 53.8697Z" stroke="#262626" stroke-width="2.5" stroke-linecap="round" stroke-linejoin="round"/>
<path d="M27.56 44.3027C36.8067 44.3027 44.3027 36.8067 44.3027 27.56C44.3027 18.3133 36.8067 10.8174 27.56 10.8174C18.3133 10.8174 10.8174 18.3133 10.8174 27.56C10.8174 36.8067 18.3133 44.3027 27.56 44.3027Z" stroke="#262626" stroke-width="2.5" stroke-linecap="round" stroke-linejoin="round"/>
<path d="M27.5602 34.7346C31.5231 34.7346 34.7356 31.5221 34.7356 27.5592C34.7356 23.5963 31.5231 20.3838 27.5602 20.3838C23.5973 20.3838 20.3848 23.5963 20.3848 27.5592C20.3848 31.5221 23.5973 34.7346 27.5602 34.7346Z" stroke="#262626" stroke-width="2.5" stroke-linecap="round" stroke-linejoin="round"/>
</svg>
