<svg width="56" height="56" viewBox="0 0 56 56" fill="none" xmlns="http://www.w3.org/2000/svg">
<path d="M27.5599 53.8697C42.0904 53.8697 53.8697 42.0904 53.8697 27.5599C53.8697 13.0293 42.0904 1.25 27.5599 1.25C13.0293 1.25 1.25 13.0293 1.25 27.5599C1.25 42.0904 13.0293 53.8697 27.5599 53.8697Z" stroke="#262626" stroke-width="2.5" stroke-linecap="round" stroke-linejoin="round"/>
<path d="M27.5602 53.8697C34.8255 53.8697 40.7151 42.0904 40.7151 27.5599C40.7151 13.0293 34.8255 1.25 27.5602 1.25C20.2949 1.25 14.4053 13.0293 14.4053 27.5599C14.4053 42.0904 20.2949 53.8697 27.5602 53.8697Z" stroke="#262626" stroke-width="2.5" stroke-linecap="round" stroke-linejoin="round"/>
<path d="M1.25 27.5596H53.8697" stroke="#262626" stroke-width="2.5" stroke-linecap="round" stroke-linejoin="round"/>
<path d="M4.23975 15.0029H50.88" stroke="#262626" stroke-width="2.5" stroke-linecap="round" stroke-linejoin="round"/>
<path d="M4.23975 40.1172H50.88" stroke="#262626" stroke-width="2.5" stroke-linecap="round" stroke-linejoin="round"/>
</svg>
