<svg width="57" height="44" viewBox="0 0 57 44" fill="none" xmlns="http://www.w3.org/2000/svg">
<path d="M53.2718 1.25H3.04385C2.05314 1.25 1.25 2.05314 1.25 3.04385V9.02337C1.25 10.0141 2.05314 10.8172 3.04385 10.8172H53.2718C54.2625 10.8172 55.0656 10.0141 55.0656 9.02337V3.04385C55.0656 2.05314 54.2625 1.25 53.2718 1.25Z" stroke="#262626" stroke-width="2.5" stroke-linecap="round" stroke-linejoin="round"/>
<path d="M53.2718 16.7969H3.04385C2.05314 16.7969 1.25 17.6 1.25 18.5907V24.5702C1.25 25.561 2.05314 26.3641 3.04385 26.3641H53.2718C54.2625 26.3641 55.0656 25.561 55.0656 24.5702V18.5907C55.0656 17.6 54.2625 16.7969 53.2718 16.7969Z" stroke="#262626" stroke-width="2.5" stroke-linecap="round" stroke-linejoin="round"/>
<path d="M53.2718 32.3438H3.04385C2.05314 32.3438 1.25 33.1469 1.25 34.1376V40.1171C1.25 41.1078 2.05314 41.911 3.04385 41.911H53.2718C54.2625 41.911 55.0656 41.1078 55.0656 40.1171V34.1376C55.0656 33.1469 54.2625 32.3438 53.2718 32.3438Z" stroke="#262626" stroke-width="2.5" stroke-linecap="round" stroke-linejoin="round"/>
</svg>
