<svg width="54" height="53" viewBox="0 0 54 53" fill="none" xmlns="http://www.w3.org/2000/svg">
<path d="M16.7967 32.3435C25.383 32.3435 32.3435 25.383 32.3435 16.7967C32.3435 8.21051 25.383 1.25 16.7967 1.25C8.21051 1.25 1.25 8.21051 1.25 16.7967C1.25 25.383 8.21051 32.3435 16.7967 32.3435Z" stroke="#262626" stroke-width="2.5" stroke-linecap="round" stroke-linejoin="round"/>
<path d="M16.797 23.9729C20.7599 23.9729 23.9724 20.7604 23.9724 16.7975C23.9724 12.8346 20.7599 9.62207 16.797 9.62207C12.8341 9.62207 9.62158 12.8346 9.62158 16.7975C9.62158 20.7604 12.8341 23.9729 16.797 23.9729Z" stroke="#262626" stroke-width="2.5" stroke-linecap="round" stroke-linejoin="round"/>
<path d="M28.1582 28.1582L52.6742 51.4783" stroke="#262626" stroke-width="2.5" stroke-linecap="round" stroke-linejoin="round"/>
<path d="M40.7148 40.1168L47.8903 32.9414" stroke="#262626" stroke-width="2.5" stroke-linecap="round" stroke-linejoin="round"/>
</svg>
