<svg width="50" height="50" viewBox="0 0 50 50" fill="none" xmlns="http://www.w3.org/2000/svg">
<path d="M1.25 45.4984C1.25 15.9995 9.02337 1.25 24.5701 1.25C40.1169 1.25 47.8902 15.9995 47.8902 45.4984" stroke="#262626" stroke-width="2.5" stroke-linecap="round" stroke-linejoin="round"/>
<path d="M7.22949 45.4986C7.22949 22.3778 13.0097 10.8174 24.5701 10.8174C36.1305 10.8174 41.9107 22.3778 41.9107 45.4986" stroke="#262626" stroke-width="2.5" stroke-linecap="round" stroke-linejoin="round"/>
<path d="M14.4048 45.4981C14.4048 29.5528 17.7932 21.5801 24.57 21.5801C31.3467 21.5801 34.7351 29.5528 34.7351 45.4981" stroke="#262626" stroke-width="2.5" stroke-linecap="round" stroke-linejoin="round"/>
<path d="M24.5698 48.4883C26.221 48.4883 27.5596 47.1497 27.5596 45.4985C27.5596 43.8473 26.221 42.5088 24.5698 42.5088C22.9186 42.5088 21.5801 43.8473 21.5801 45.4985C21.5801 47.1497 22.9186 48.4883 24.5698 48.4883Z" stroke="#262626" stroke-width="2.5" stroke-linecap="round" stroke-linejoin="round"/>
</svg>
