<svg width="71" height="42" viewBox="0 0 71 42" fill="none" xmlns="http://www.w3.org/2000/svg">
<path d="M53.2706 29.9521H17.3935C16.4027 29.9521 15.5996 30.7553 15.5996 31.746V38.9214C15.5996 39.9121 16.4027 40.7153 17.3935 40.7153H53.2706C54.2613 40.7153 55.0644 39.9121 55.0644 38.9214V31.746C55.0644 30.7553 54.2613 29.9521 53.2706 29.9521Z" stroke="#262626" stroke-width="2.5" stroke-linecap="round" stroke-linejoin="round"/>
<path d="M60.4466 15.6006H10.2187C9.22794 15.6006 8.4248 16.4037 8.4248 17.3944V24.5699C8.4248 25.5606 9.22794 26.3637 10.2187 26.3637H60.4466C61.4373 26.3637 62.2404 25.5606 62.2404 24.5699V17.3944C62.2404 16.4037 61.4373 15.6006 60.4466 15.6006Z" stroke="#262626" stroke-width="2.5" stroke-linecap="round" stroke-linejoin="round"/>
<path d="M67.6226 1.25H3.04385C2.05314 1.25 1.25 2.05314 1.25 3.04385V10.2193C1.25 11.21 2.05314 12.0131 3.04385 12.0131H67.6226C68.6133 12.0131 69.4165 11.21 69.4165 10.2193V3.04385C69.4165 2.05314 68.6133 1.25 67.6226 1.25Z" stroke="#262626" stroke-width="2.5" stroke-linecap="round" stroke-linejoin="round"/>
</svg>
