<svg width="1309" height="216" viewBox="0 0 1309 216" fill="none" xmlns="http://www.w3.org/2000/svg">
<path d="M193.568 14.126H175.535C173.895 14.126 172.513 15.3402 172.308 16.9597C171.363 24.48 169.24 32.2459 166.001 40.0329L111.712 169.254L50.7188 29.3233C49.2241 25.9262 48.1671 22.0727 47.2873 16.8286C47.0268 15.2694 45.67 14.126 44.0799 14.126H25.2627C24.1103 14.126 23.0442 14.7331 22.4612 15.7199C21.8766 16.7081 21.8615 17.9299 22.4203 18.9317C32.5558 37.0802 40.7135 53.4767 47.3645 69.0747L105.904 204.525C106.418 205.712 107.591 206.482 108.891 206.482H112.027C113.34 206.482 114.523 205.697 115.028 204.492L171.221 70.3281C178.249 53.3516 186.719 36.0648 196.398 18.9452C196.965 17.9434 196.954 16.7187 196.371 15.7259C195.788 14.7346 194.719 14.1245 193.564 14.1245L193.568 14.126Z" fill="black"/>
<path d="M239.304 14.126H222.578C220.782 14.126 219.327 15.5737 219.327 17.3604V19.1802C219.327 19.2586 219.33 19.3369 219.336 19.4137C220.561 36.2366 221.158 53.6785 221.158 72.7475L221.42 143.971C221.42 160.613 220.739 178.055 219.338 197.292C219.332 197.371 219.329 197.448 219.329 197.526V199.346C219.329 201.132 220.784 202.58 222.58 202.58H239.306C241.102 202.58 242.557 201.132 242.557 199.346V197.526C242.557 197.448 242.554 197.371 242.548 197.292C241.147 178.059 240.466 160.617 240.466 143.971V72.7355C240.466 56.0874 241.147 38.6454 242.548 19.4122C242.554 19.3339 242.557 19.2571 242.557 19.1787V17.3589C242.557 15.5722 241.102 14.1245 239.306 14.1245L239.304 14.126Z" fill="black"/>
<path d="M436.879 162.837H435.832C435.019 162.837 434.235 163.139 433.635 163.686L430.497 166.547C413.359 182.198 394.756 190.134 375.201 190.134C351.753 190.134 332.004 181.805 318.091 166.048C305.11 151.347 297.959 130.764 297.959 108.094C297.959 85.4248 304.954 64.3974 317.656 49.6911C331.159 34.0584 350.334 25.7939 373.11 25.7939C395.885 25.7939 411.415 32.7418 427.783 49.0253L430.92 52.1452C431.53 52.7523 432.355 53.0928 433.218 53.0928H434.263C436.059 53.0928 437.515 51.645 437.515 49.8584V30.8798C437.515 29.8147 436.988 28.8174 436.105 28.2148C419.88 17.1181 398.065 11.0063 374.677 11.0063C345.338 11.0063 320.639 20.4263 303.253 38.2464C286.303 55.6191 277.344 79.7725 277.344 108.094C277.344 136.416 286.397 160.081 303.521 177.526C321.113 195.449 345.9 204.921 375.201 204.921C398.585 204.921 421.429 198.758 437.896 188.001L438.681 187.481C439.586 186.881 440.13 185.871 440.13 184.789V166.069C440.13 164.283 438.675 162.835 436.879 162.835V162.837Z" fill="black"/>
<path d="M606.226 14.126H466.41C464.614 14.126 463.159 15.5737 463.159 17.3604V32.9599C463.159 34.7466 464.614 36.1943 466.41 36.1943H468.762C469.004 36.1943 469.246 36.1672 469.483 36.1145C484.946 32.618 502.474 28.6559 520.769 28.6559H526.664V143.974C526.664 163.032 526.069 180.474 524.842 197.295C524.836 197.374 524.833 197.451 524.833 197.529V199.349C524.833 201.135 526.289 202.583 528.085 202.583H544.548C546.344 202.583 547.8 201.135 547.8 199.349V197.529C547.8 197.451 547.797 197.374 547.791 197.295C546.566 180.473 545.969 163.031 545.969 143.974V28.668C568.511 28.8548 580.638 31.0527 603.423 36.116C603.656 36.1672 603.894 36.1943 604.132 36.1943H606.223C608.019 36.1943 609.474 34.7466 609.474 32.9599V17.3604C609.474 15.5737 608.019 14.126 606.223 14.126H606.226Z" fill="black"/>
<path d="M720.724 114.284C752.35 109.442 769.68 92.0605 769.68 64.9364C769.68 49.1892 764.35 36.8045 753.837 28.1287C742.576 18.8368 725.535 14.1245 703.184 14.1245H638.372C636.576 14.1245 635.12 15.5722 635.12 17.3589V19.1787C635.12 19.2405 635.122 19.3038 635.125 19.3655L635.172 20.1595C636.22 38.1543 637.21 55.1504 637.21 72.4748V143.971C637.21 160.613 636.529 178.055 635.128 197.292C635.122 197.371 635.119 197.448 635.119 197.526V199.346C635.119 201.132 636.574 202.58 638.37 202.58H655.096C656.892 202.58 658.347 201.132 658.347 199.346V197.526C658.347 197.448 658.344 197.371 658.338 197.292C656.937 178.055 656.256 160.613 656.256 143.971V115.747H699.053L735.995 173.026C741.824 181.987 746.648 191.242 750.336 200.534C750.826 201.77 752.024 202.582 753.36 202.582H771.915C773.105 202.582 774.2 201.935 774.77 200.896C775.339 199.856 775.294 198.591 774.649 197.597L720.721 114.284H720.724ZM656.259 28.6545H703.185C734.234 28.6545 749.327 40.5225 749.327 64.9379C749.327 76.3284 746.203 84.7586 739.778 90.7137C732.256 97.6857 719.945 101.22 703.185 101.22H656.259V28.6545Z" fill="black"/>
<path d="M826.014 14.126H809.288C807.492 14.126 806.037 15.5737 806.037 17.3604V19.1802C806.037 19.2586 806.04 19.3369 806.046 19.4137C807.271 36.2366 807.867 53.6785 807.867 72.7475L808.129 143.971C808.129 160.613 807.448 178.055 806.047 197.292C806.041 197.371 806.038 197.448 806.038 197.526V199.346C806.038 201.132 807.493 202.58 809.289 202.58H826.015C827.811 202.58 829.267 201.132 829.267 199.346V197.526C829.267 197.448 829.264 197.371 829.258 197.292C827.857 178.059 827.175 160.617 827.175 143.971V72.7355C827.175 56.0874 827.857 38.6454 829.258 19.4122C829.264 19.3339 829.267 19.2571 829.267 19.1787V17.3589C829.267 15.5722 827.811 14.1245 826.015 14.1245L826.014 14.126Z" fill="black"/>
<path d="M1016.38 197.238C1007.55 187.027 998.627 175.78 989.102 162.859L943.97 101.566L967.709 68.3576C978.939 52.4688 991.12 36.4519 1004.95 19.3911C1005.74 18.4209 1005.89 17.0892 1005.35 15.9654C1004.81 14.8416 1003.67 14.126 1002.42 14.126H983.605C982.257 14.126 981.048 14.953 980.567 16.2049C977.415 24.4032 973.26 32.1736 967.881 39.9304L933.901 87.7399L893.451 32.8665C893.439 32.8515 893.427 32.8349 893.415 32.8198C889.461 27.6571 886.163 22.16 883.331 16.0136C882.801 14.8641 881.647 14.1275 880.375 14.1275H860.513C859.244 14.1275 858.09 14.8626 857.558 16.0106C857.027 17.1585 857.218 18.5083 858.043 19.4679C865.31 27.9027 872.525 37.0214 880.107 47.3588L921.096 102.734L892.04 146.34C879.66 164.813 865.98 181.744 853.041 197.286C852.238 198.252 852.067 199.591 852.603 200.726C853.14 201.86 854.286 202.583 855.546 202.583H874.623C875.979 202.583 877.192 201.747 877.667 200.485C880.346 193.38 884.418 185.864 890.121 177.505L931.44 116.827L983.315 187.199C986.63 191.874 989.268 196.301 991.379 200.733C991.917 201.863 993.062 202.583 994.317 202.583H1013.92C1015.19 202.583 1016.34 201.846 1016.87 200.697C1017.4 199.548 1017.21 198.196 1016.38 197.238H1016.38Z" fill="black"/>
<path d="M322.58 102.05C322.796 101.603 323.066 101.209 323.395 100.867C323.723 100.524 324.086 100.234 324.488 99.9945C324.889 99.7567 325.339 99.5693 325.837 99.4359C326.336 99.3026 326.852 99.2342 327.387 99.2342C328.22 99.2342 328.963 99.3603 329.618 99.6143C330.271 99.8684 330.823 100.225 331.268 100.686C331.714 101.149 332.018 101.699 332.182 102.339H335.128C334.978 101.267 334.561 100.33 333.879 99.5242C333.195 98.7207 332.299 98.0991 331.191 97.6594C330.082 97.2198 328.815 97 327.387 97C326.539 97 325.747 97.0883 325.011 97.2685C324.275 97.4468 323.595 97.7045 322.971 98.0396C322.346 98.3747 321.789 98.7837 321.297 99.2684C320.806 99.7531 320.394 100.304 320.059 100.922C319.725 101.54 319.464 102.214 319.278 102.944C319.093 103.674 319 104.448 319 105.268C319 106.92 319.349 108.369 320.049 109.612C320.749 110.855 321.726 111.821 322.983 112.504C324.239 113.189 325.708 113.531 327.388 113.531C328.832 113.531 330.102 113.318 331.203 112.895C332.304 112.47 333.2 111.854 333.891 111.041C334.582 110.23 335.018 109.257 335.196 108.126H332.274C332.096 108.782 331.783 109.347 331.336 109.823C330.89 110.3 330.332 110.661 329.663 110.906C328.993 111.151 328.234 111.273 327.387 111.273C326.285 111.273 325.326 111.028 324.509 110.536C323.691 110.045 323.055 109.349 322.602 108.448C322.148 107.547 321.922 106.486 321.922 105.265C321.922 104.654 321.978 104.077 322.089 103.533C322.201 102.989 322.364 102.495 322.58 102.048V102.05Z" fill="#040404"/>
<path d="M339.324 113.241H342.068L343.637 109.4H351.46L353 113.241H356.034L349.342 97.292H346.018L339.326 113.241H339.324ZM350.592 107.232H344.523L347.587 99.7315L350.592 107.232Z" fill="#040404"/>
<path d="M373.757 98.6109C373.273 98.1784 372.708 97.8523 372.06 97.6271C371.412 97.4037 370.696 97.292 369.908 97.292H361.408V113.241H364.197V107.299H369.908C370.696 107.299 371.414 107.187 372.06 106.964C372.708 106.74 373.273 106.412 373.757 105.98C374.239 105.548 374.612 105.023 374.873 104.405C375.134 103.787 375.263 103.083 375.263 102.295C375.263 101.508 375.134 100.802 374.873 100.184C374.612 99.5658 374.241 99.0415 373.757 98.6091V98.6109ZM372.017 103.769C371.787 104.185 371.459 104.506 371.035 104.73C370.61 104.953 370.101 105.065 369.507 105.065H364.197V99.5243H369.507C370.385 99.5243 371.08 99.7748 371.592 100.274C372.105 100.773 372.363 101.454 372.363 102.317C372.363 102.868 372.247 103.353 372.017 103.769Z" fill="#040404"/>
<path d="M383.94 97.292H381.174V113.241H383.94V97.292Z" fill="#040404"/>
<path d="M398.263 113.241V99.5478H404.108V97.292H389.606V99.5478H395.474V113.241H398.263Z" fill="#040404"/>
<path d="M405.872 113.241H408.616L410.185 109.4H418.007L419.547 113.241H422.581L415.889 97.292H412.565L405.873 113.241H405.872ZM417.138 107.232H411.068L414.133 99.7315L417.138 107.232Z" fill="#040404"/>
<path d="M427.956 97.292V113.241H439.646V110.985H430.723V97.292H427.956Z" fill="#040404"/>
<g clip-path="url(#clip0_114_187)">
<mask id="mask0_114_187" style="mask-type:luminance" maskUnits="userSpaceOnUse" x="1093" y="9" width="216" height="195">
<path d="M1308.18 9.63037H1093.76V203.618H1308.18V9.63037Z" fill="white"/>
</mask>
<g mask="url(#mask0_114_187)">
<path d="M1249.94 159.478H1274.23C1283.32 159.478 1289.63 155.319 1289.63 146.803C1289.63 138.287 1283.31 134.14 1274.23 134.14H1249.94V159.478ZM1249.94 203.618H1282.33C1299.5 203.618 1308.39 194.706 1308.39 177.488V159.478H1307.8C1302.86 174.517 1290.03 179.072 1274.82 179.072H1250.73C1250.14 179.072 1249.94 179.27 1249.94 179.864V203.618ZM1204.32 146.803L1229.2 170.952V122.654L1204.32 146.803ZM1119.82 203.618H1229.21V198.072C1229.21 188.368 1232.57 182.835 1240.28 179.864V179.27H1209.67C1208.09 179.27 1207.5 179.072 1206.31 177.884L1190.32 161.26L1173.74 178.082C1172.95 178.874 1172.36 179.27 1170.78 179.27H1146.1C1144.71 179.27 1144.71 178.478 1145.5 177.686L1177.1 147.001L1144.91 115.722C1144.12 114.93 1144.32 114.138 1145.7 114.138H1170.58C1171.96 114.138 1172.55 114.336 1173.34 115.326L1190.72 132.742L1207.1 115.326C1207.89 114.534 1208.48 114.138 1209.67 114.138H1274.63C1289.63 114.138 1302.86 119.089 1307.8 134.128H1308.39V35.7602C1308.39 18.5422 1299.5 9.63037 1282.33 9.63037H1119.82C1102.65 9.63037 1093.76 18.5422 1093.76 35.7602V177.686C1093.76 194.706 1102.65 203.618 1119.82 203.618Z" fill="black"/>
</g>
</g>
<defs>
<clipPath id="clip0_114_187">
<rect width="214.624" height="193.987" fill="white" transform="translate(1093.76 9.63037)"/>
</clipPath>
</defs>
</svg>
