<?xml version="1.0" encoding="UTF-8"?><svg id="Layer_1" xmlns="http://www.w3.org/2000/svg" viewBox="0 0 4024 1726"><path d="M1064.05,355.38h-52.43c-4.77,0-8.79,3.55-9.38,8.28-2.75,21.98-8.92,44.68-18.34,67.44l-157.85,377.69-177.34-408.99c-4.35-9.93-7.42-21.19-9.98-36.52-.76-4.56-4.7-7.9-9.33-7.9h-54.71c-3.35,0-6.45,1.77-8.15,4.66-1.7,2.89-1.74,6.46-.12,9.39,29.47,53.04,53.19,100.97,72.53,146.56l170.21,395.89c1.49,3.47,4.91,5.72,8.68,5.72h9.12c3.82,0,7.26-2.29,8.73-5.82l163.39-392.13c20.43-49.62,45.06-100.14,73.21-150.18,1.65-2.93,1.62-6.51-.08-9.41-1.7-2.9-4.8-4.68-8.16-4.68h.01Z" fill="#0e1c0e"/><path d="M1197.04,355.38h-48.63c-5.22,0-9.45,4.23-9.45,9.45v5.32c0,.23,0,.46.03.68,3.56,49.17,5.3,100.15,5.3,155.88l.76,208.17c0,48.64-1.98,99.62-6.05,155.85-.02.23-.03.45-.03.68v5.32c0,5.22,4.23,9.45,9.45,9.45h48.63c5.22,0,9.45-4.23,9.45-9.45v-5.32c0-.23,0-.45-.03-.68-4.07-56.21-6.05-107.19-6.05-155.85v-208.21c0-48.66,1.98-99.64,6.05-155.85.02-.23.03-.45.03-.68v-5.32c0-5.22-4.23-9.45-9.45-9.45h0Z" fill="#0e1c0e"/><path d="M1771.51,790.03h-3.04c-2.36,0-4.65.89-6.39,2.48l-9.12,8.36c-49.83,45.74-103.92,68.94-160.78,68.94-68.18,0-125.6-24.34-166.06-70.4-37.74-42.97-58.54-103.13-58.54-169.39s20.34-127.72,57.27-170.7c39.26-45.69,95.02-69.85,161.24-69.85s111.38,20.31,158.97,67.9l9.12,9.12c1.77,1.77,4.17,2.77,6.68,2.77h3.04c5.22,0,9.45-4.23,9.45-9.45v-55.47c0-3.11-1.53-6.03-4.1-7.79-47.18-32.43-110.61-50.3-178.61-50.3-85.31,0-157.12,27.53-207.67,79.62-49.28,50.78-75.33,121.37-75.33,204.15s26.32,151.95,76.11,202.94c51.15,52.38,123.22,80.07,208.42,80.07,67.99,0,134.41-18.01,182.29-49.46l2.28-1.52c2.63-1.75,4.21-4.71,4.21-7.87v-54.71c0-5.22-4.23-9.45-9.45-9.45h0Z" fill="#0e1c0e"/><path d="M2263.91,355.38h-406.53c-5.22,0-9.45,4.23-9.45,9.45v45.59c0,5.22,4.23,9.45,9.45,9.45h6.84c.7,0,1.41-.08,2.1-.23,44.96-10.22,95.93-21.8,149.12-21.8h17.14v337.05c0,55.7-1.73,106.68-5.3,155.85-.02.23-.03.45-.03.68v5.32c0,5.22,4.23,9.45,9.45,9.45h47.87c5.22,0,9.45-4.23,9.45-9.45v-5.32c0-.23,0-.45-.03-.68-3.56-49.17-5.3-100.15-5.3-155.85v-337.02c65.55.55,100.81,6.97,167.05,21.77.68.15,1.37.23,2.06.23h6.08c5.22,0,9.45-4.23,9.45-9.45v-45.59c0-5.22-4.23-9.45-9.45-9.45h0Z" fill="#0e1c0e"/><path d="M2596.82,648.12c91.95-14.15,142.34-64.96,142.34-144.23,0-46.03-15.5-82.22-46.07-107.58-32.74-27.16-82.29-40.93-147.28-40.93h-188.45c-5.22,0-9.45,4.23-9.45,9.45v5.32c0,.18,0,.37.01.55l.14,2.32c3.05,52.6,5.93,102.27,5.93,152.91v208.97c0,48.64-1.98,99.62-6.05,155.85-.02.23-.03.45-.03.68v5.32c0,5.22,4.23,9.45,9.45,9.45h48.63c5.22,0,9.45-4.23,9.45-9.45v-5.32c0-.23,0-.45-.03-.68-4.07-56.23-6.05-107.21-6.05-155.85v-82.49h124.44l107.41,167.42c16.95,26.19,30.98,53.24,41.7,80.4,1.43,3.61,4.91,5.98,8.79,5.98h53.95c3.46,0,6.64-1.89,8.3-4.93,1.66-3.04,1.52-6.74-.35-9.64l-156.8-243.51h0ZM2409.38,397.84h136.44c90.28,0,134.16,34.69,134.16,106.05,0,33.29-9.08,57.93-27.77,75.34-21.87,20.38-57.67,30.71-106.4,30.71h-136.44v-212.09Z" fill="#0e1c0e"/><path d="M2902.97,355.38h-48.63c-5.22,0-9.45,4.23-9.45,9.45v5.32c0,.23,0,.46.03.68,3.56,49.17,5.3,100.15,5.3,155.88l.76,208.17c0,48.64-1.98,99.62-6.05,155.85-.02.23-.03.45-.03.68v5.32c0,5.22,4.23,9.45,9.45,9.45h48.63c5.22,0,9.45-4.23,9.45-9.45v-5.32c0-.23,0-.45-.03-.68-4.07-56.21-6.05-107.19-6.05-155.85v-208.21c0-48.66,1.98-99.64,6.05-155.85.02-.23.03-.45.03-.68v-5.32c0-5.22-4.23-9.45-9.45-9.45h0Z" fill="#0e1c0e"/><path d="M3456.49,890.58c-25.68-29.84-51.63-62.72-79.33-100.48l-131.23-179.15,69.02-97.06c32.65-46.44,68.07-93.25,108.29-143.12,2.29-2.84,2.74-6.73,1.17-10.01-1.57-3.28-4.89-5.38-8.53-5.38h-54.71c-3.92,0-7.43,2.42-8.83,6.08-9.16,23.96-21.25,46.67-36.89,69.34l-98.8,139.74-117.61-160.38s-.07-.09-.11-.14c-11.5-15.09-21.09-31.16-29.32-49.12-1.54-3.36-4.9-5.51-8.59-5.51h-57.75c-3.69,0-7.05,2.15-8.59,5.5s-.99,7.3,1.41,10.11c21.13,24.65,42.11,51.31,64.15,81.52l119.18,161.85-84.48,127.45c-36,53.99-75.77,103.48-113.39,148.91-2.33,2.82-2.83,6.74-1.27,10.05,1.56,3.32,4.89,5.43,8.56,5.43h55.47c3.94,0,7.47-2.44,8.85-6.13,7.79-20.77,19.63-42.73,36.21-67.17l120.14-177.35,150.83,205.68c9.64,13.66,17.31,26.6,23.45,39.56,1.56,3.3,4.89,5.41,8.54,5.41h56.99c3.69,0,7.05-2.15,8.59-5.51,1.54-3.36.99-7.31-1.43-10.11h0Z" fill="#0e1c0e"/><path d="M1523.08,1280.95c1.86-3.85,4.19-7.24,7.02-10.19,2.82-2.95,5.95-5.44,9.41-7.5,3.46-2.05,7.33-3.66,11.63-4.81s8.74-1.74,13.35-1.74c7.18,0,13.58,1.09,19.23,3.27,5.63,2.19,10.39,5.26,14.22,9.23,3.85,3.98,6.47,8.71,7.88,14.22h25.38c-1.29-9.23-4.88-17.29-10.76-24.22-5.89-6.92-13.61-12.26-23.16-16.05s-20.47-5.67-32.78-5.67c-7.3,0-14.12.76-20.47,2.31-6.34,1.53-12.2,3.75-17.58,6.64-5.38,2.88-10.19,6.4-14.42,10.57-4.23,4.17-7.78,8.92-10.67,14.23-2.88,5.32-5.13,11.12-6.73,17.4-1.6,6.28-2.4,12.95-2.4,20,0,14.22,3.01,26.68,9.04,37.38,6.03,10.7,14.45,19.01,25.29,24.88,10.82,5.89,23.47,8.84,37.96,8.84,12.43,0,23.38-1.83,32.87-5.47,9.49-3.66,17.21-8.96,23.16-15.95,5.95-6.98,9.71-15.35,11.24-25.09h-25.18c-1.53,5.64-4.23,10.51-8.08,14.61-3.85,4.11-8.65,7.21-14.42,9.32-5.77,2.11-12.31,3.16-19.61,3.16-9.49,0-17.75-2.11-24.79-6.34-7.05-4.23-12.53-10.22-16.43-17.97-3.91-7.75-5.86-16.88-5.86-27.4,0-5.26.48-10.22,1.44-14.9.96-4.68,2.37-8.93,4.23-12.78v.02Z" fill="#0e1c0e"/><path d="M1667.35,1377.25h23.64l13.52-33.06h67.4l13.27,33.06h26.14l-57.66-137.25h-28.64l-57.66,137.25h-.02ZM1764.44,1325.54h-52.3l26.4-64.55,25.89,64.55Z" fill="#0e1c0e"/><path d="M1964.04,1251.35c-4.17-3.72-9.04-6.53-14.62-8.47-5.58-1.92-11.75-2.88-18.54-2.88h-73.24v137.25h24.03v-51.13h49.21c6.79,0,12.98-.96,18.54-2.88,5.58-1.92,10.45-4.74,14.62-8.47,4.16-3.72,7.36-8.23,9.61-13.55s3.36-11.38,3.36-18.16-1.12-12.85-3.36-18.17-5.44-9.83-9.61-13.55v.02ZM1949.05,1295.74c-1.98,3.58-4.81,6.34-8.47,8.26-3.66,1.92-8.05,2.88-13.16,2.88h-45.75v-47.68h45.75c7.57,0,13.55,2.16,17.97,6.45,4.42,4.29,6.64,10.16,6.64,17.58,0,4.74-.99,8.92-2.98,12.5h0Z" fill="#0e1c0e"/><rect x="2027.95" y="1240" width="23.83" height="137.25" fill="#0e1c0e"/><polygon points="2175.2 1377.25 2175.2 1259.41 2225.56 1259.41 2225.56 1240 2100.61 1240 2100.61 1259.41 2151.17 1259.41 2151.17 1377.25 2175.2 1377.25" fill="#0e1c0e"/><path d="M2240.75,1377.25h23.64l13.52-33.06h67.4l13.27,33.06h26.14l-57.66-137.25h-28.64l-57.66,137.25h-.02ZM2337.83,1325.54h-52.3l26.4-64.55,25.89,64.55Z" fill="#0e1c0e"/><polygon points="2431.04 1240 2431.04 1377.25 2531.77 1377.25 2531.77 1357.84 2454.89 1357.84 2454.89 1240 2431.04 1240" fill="#0e1c0e"/></svg>