<?xml version="1.0" encoding="UTF-8"?><svg id="Layer_1" xmlns="http://www.w3.org/2000/svg" viewBox="0 0 6859.26 1433.81"><path d="M1276.72,88.83h-119.08c-10.83,0-19.96,8.06-21.31,18.81-6.24,49.92-20.26,101.47-41.65,153.16l-358.5,857.77L333.41,189.71c-9.87-22.55-16.85-48.13-22.66-82.94-1.72-10.35-10.68-17.94-21.18-17.94h-124.26c-7.61,0-14.65,4.03-18.5,10.58-3.86,6.56-3.96,14.67-.27,21.32,66.93,120.47,120.8,229.31,164.72,332.85l386.57,899.12c3.39,7.88,11.14,12.99,19.72,12.99h20.71c8.67,0,16.48-5.21,19.82-13.21l371.07-890.58c46.41-112.69,102.34-227.44,166.26-341.08,3.74-6.65,3.67-14.78-.18-21.37-3.85-6.58-10.91-10.63-18.54-10.63Z" fill="#88e833"/><path d="M1578.74,88.83h-110.45c-11.86,0-21.47,9.61-21.47,21.47v12.08c0,.52.02,1.04.06,1.55,8.09,111.67,12.03,227.45,12.03,354.03l1.73,472.78c0,110.47-4.5,226.25-13.75,353.95-.04.52-.06,1.03-.06,1.55v12.08c0,11.86,9.61,21.47,21.47,21.47h110.45c11.86,0,21.47-9.61,21.47-21.47v-12.08c0-.52-.02-1.03-.06-1.55-9.25-127.67-13.75-243.45-13.75-353.95v-472.86c0-110.51,4.5-226.29,13.75-353.96.04-.52.06-1.03.06-1.55v-12.08c0-11.86-9.61-21.47-21.47-21.47Z" fill="#88e833"/><path d="M2883.43,1075.97h-6.91c-5.37,0-10.55,2.01-14.51,5.64l-20.72,18.99c-113.17,103.89-236.02,156.57-365.15,156.57-154.84,0-285.25-55.29-377.13-159.88-85.72-97.59-132.94-234.22-132.94-384.7s46.19-290.06,130.07-387.68c89.17-103.77,215.79-158.63,366.19-158.63s252.95,46.12,361.04,154.21l20.71,20.71c4.03,4.03,9.48,6.29,15.18,6.29h6.9c11.86,0,21.47-9.61,21.47-21.47v-125.98c0-7.07-3.48-13.69-9.31-17.69-107.14-73.66-251.2-114.23-405.64-114.23-193.74,0-356.84,62.53-471.65,180.82-111.93,115.32-171.09,275.65-171.09,463.65s59.78,345.09,172.86,460.89c116.17,118.97,279.85,181.85,473.34,181.85,154.42,0,305.27-40.91,414.01-112.32l5.18-3.45c5.98-3.98,9.57-10.69,9.57-17.87v-124.26c0-11.86-9.61-21.47-21.47-21.47Z" fill="#88e833"/><path d="M4001.72,88.83h-923.28c-11.86,0-21.47,9.61-21.47,21.47v103.55c0,11.86,9.61,21.47,21.47,21.47h15.53c1.6,0,3.2-.18,4.76-.53,102.11-23.21,217.86-49.51,338.67-49.51h38.93v765.48c0,126.51-3.93,242.29-12.03,353.95-.04.52-.06,1.03-.06,1.55v12.08c0,11.86,9.61,21.47,21.47,21.47h108.72c11.86,0,21.47-9.61,21.47-21.47v-12.08c0-.52-.02-1.03-.06-1.55-8.09-111.67-12.03-227.45-12.03-353.95V185.36c148.86,1.24,228.94,15.83,379.4,49.44,1.54.34,3.11.52,4.68.52h13.81c11.86,0,21.47-9.61,21.47-21.47v-103.55c0-11.86-9.61-21.47-21.47-21.47Z" fill="#88e833"/><path d="M4757.81,753.68c208.84-32.14,323.28-147.52,323.28-327.57,0-104.53-35.2-186.74-104.62-244.33-74.36-61.68-186.89-92.96-334.49-92.96h-427.99c-11.86,0-21.47,9.61-21.47,21.47v12.08c0,.41.01.83.03,1.24l.31,5.27c6.92,119.45,13.46,232.27,13.46,347.27v474.59c0,110.47-4.5,226.25-13.75,353.95-.04.52-.06,1.03-.06,1.55v12.08c0,11.86,9.61,21.47,21.47,21.47h110.45c11.86,0,21.47-9.61,21.47-21.47v-12.08c0-.52-.02-1.03-.06-1.55-9.25-127.7-13.75-243.48-13.75-353.95v-187.35h282.61l243.95,380.22c38.49,59.48,70.35,120.92,94.7,182.6,3.24,8.2,11.15,13.59,19.97,13.59h122.53c7.86,0,15.09-4.29,18.85-11.19,3.76-6.9,3.46-15.3-.8-21.9l-356.11-553.03ZM4332.11,185.27h309.88c205.03,0,304.7,78.78,304.7,240.85,0,75.61-20.63,131.57-63.06,171.1-49.67,46.28-130.97,69.74-241.64,69.74h-309.88V185.27Z" fill="#88e833"/><path d="M5453.1,88.83h-110.45c-11.86,0-21.47,9.61-21.47,21.47v12.08c0,.52.02,1.04.06,1.55,8.09,111.67,12.03,227.45,12.03,354.03l1.73,472.78c0,110.47-4.5,226.25-13.75,353.95-.04.52-.06,1.03-.06,1.55v12.08c0,11.86,9.61,21.47,21.47,21.47h110.45c11.86,0,21.47-9.61,21.47-21.47v-12.08c0-.52-.02-1.03-.06-1.55-9.25-127.67-13.75-243.45-13.75-353.95v-472.86c0-110.51,4.5-226.29,13.75-353.96.04-.52.06-1.03.06-1.55v-12.08c0-11.86-9.61-21.47-21.47-21.47Z" fill="#88e833"/><path d="M6710.21,1304.33c-58.33-67.78-117.26-142.44-180.16-228.21l-298.03-406.86,156.76-220.44c74.16-105.47,154.6-211.79,245.93-325.04,5.19-6.44,6.22-15.28,2.66-22.74-3.57-7.46-11.1-12.21-19.37-12.21h-124.25c-8.9,0-16.88,5.49-20.06,13.8-20.81,54.42-48.25,106-83.77,157.49l-224.39,317.36-267.11-364.25c-.08-.1-.16-.21-.24-.31-26.11-34.27-47.89-70.76-66.59-111.56-3.5-7.63-11.12-12.52-19.52-12.52h-131.16c-8.38,0-16,4.88-19.51,12.5-3.51,7.62-2.25,16.58,3.2,22.95,47.99,55.99,95.63,116.52,145.7,185.14l270.67,367.58-191.87,289.46c-81.75,122.62-172.09,235.01-257.53,338.18-5.3,6.41-6.43,15.3-2.89,22.83,3.54,7.53,11.11,12.33,19.43,12.33h125.98c8.95,0,16.96-5.55,20.1-13.93,17.69-47.16,44.58-97.05,82.24-152.54l272.85-402.78,342.56,467.13c21.89,31.03,39.31,60.42,53.25,89.84,3.55,7.5,11.11,12.28,19.4,12.28h129.43c8.39,0,16.02-4.89,19.51-12.52,3.5-7.63,2.24-16.6-3.24-22.96Z" fill="#88e833"/><path d="M2168.6,677.33c1.2-2.48,2.7-4.67,4.53-6.57,1.82-1.9,3.84-3.51,6.07-4.84,2.23-1.32,4.73-2.36,7.5-3.1,2.77-.74,5.64-1.12,8.61-1.12,4.63,0,8.76.7,12.4,2.11,3.63,1.41,6.7,3.39,9.17,5.95,2.48,2.57,4.17,5.62,5.08,9.17h16.37c-.83-5.95-3.15-11.15-6.94-15.62-3.8-4.46-8.78-7.91-14.94-10.35-6.16-2.44-13.2-3.66-21.14-3.66-4.71,0-9.11.49-13.2,1.49-4.09.99-7.87,2.42-11.34,4.28-3.47,1.86-6.57,4.13-9.3,6.82-2.73,2.69-5.02,5.75-6.88,9.18-1.86,3.43-3.31,7.17-4.34,11.22-1.03,4.05-1.55,8.35-1.55,12.9,0,9.17,1.94,17.21,5.83,24.11,3.89,6.9,9.32,12.26,16.31,16.05,6.98,3.8,15.14,5.7,24.48,5.7,8.02,0,15.08-1.18,21.2-3.53,6.12-2.36,11.1-5.78,14.94-10.29,3.84-4.5,6.26-9.9,7.25-16.18h-16.24c-.99,3.64-2.73,6.78-5.21,9.42-2.48,2.65-5.58,4.65-9.3,6.01-3.72,1.36-7.94,2.04-12.65,2.04-6.12,0-11.45-1.36-15.99-4.09-4.55-2.73-8.08-6.59-10.6-11.59-2.52-5-3.78-10.89-3.78-17.67,0-3.39.31-6.59.93-9.61.62-3.02,1.53-5.76,2.73-8.24Z" fill="#88e833"/><path d="M2261.65,739.44h15.25l8.72-21.32h43.47l8.56,21.32h16.86l-37.19-88.52h-18.47l-37.19,88.52ZM2324.27,706.09h-33.73l17.03-41.63,16.7,41.63Z" fill="#88e833"/><path d="M2453.01,658.24c-2.69-2.4-5.83-4.21-9.43-5.46-3.6-1.24-7.58-1.86-11.96-1.86h-47.24v88.52h15.5v-32.98h31.74c4.38,0,8.37-.62,11.96-1.86,3.6-1.24,6.74-3.06,9.43-5.46,2.68-2.4,4.75-5.31,6.2-8.74,1.45-3.43,2.17-7.34,2.17-11.71s-.72-8.29-2.17-11.72c-1.45-3.43-3.51-6.34-6.2-8.74ZM2443.34,686.87c-1.28,2.31-3.1,4.09-5.46,5.33-2.36,1.24-5.19,1.86-8.49,1.86h-29.51v-30.75h29.51c4.88,0,8.74,1.39,11.59,4.16,2.85,2.77,4.28,6.55,4.28,11.34,0,3.06-.64,5.75-1.92,8.06Z" fill="#88e833"/><rect x="2494.23" y="650.92" width="15.37" height="88.52" fill="#88e833"/><polygon points="2589.2 739.44 2589.2 663.44 2621.68 663.44 2621.68 650.92 2541.09 650.92 2541.09 663.44 2573.7 663.44 2573.7 739.44 2589.2 739.44" fill="#88e833"/><path d="M2631.48,739.44h15.25l8.72-21.32h43.47l8.56,21.32h16.86l-37.19-88.52h-18.47l-37.19,88.52ZM2694.09,706.09h-33.73l17.03-41.63,16.7,41.63Z" fill="#88e833"/><polygon points="2754.21 650.92 2754.21 739.44 2819.18 739.44 2819.18 726.92 2769.59 726.92 2769.59 650.92 2754.21 650.92" fill="#88e833"/></svg>