<svg width="121" height="121" viewBox="0 0 121 121" fill="none" xmlns="http://www.w3.org/2000/svg">
<rect width="120.555" height="120.555" rx="10" fill="#88E833"/>
<path d="M60.3099 90.6197C74.8404 90.6197 86.6197 78.8404 86.6197 64.3099C86.6197 49.7793 74.8404 38 60.3099 38C45.7793 38 34 49.7793 34 64.3099C34 78.8404 45.7793 90.6197 60.3099 90.6197Z" fill="#88E833" stroke="#0E1C0E" stroke-width="2.5" stroke-linecap="round" stroke-linejoin="round"/>
<path d="M60.31 81.0527C69.5567 81.0527 77.0527 73.5567 77.0527 64.31C77.0527 55.0633 69.5567 47.5674 60.31 47.5674C51.0633 47.5674 43.5674 55.0633 43.5674 64.31C43.5674 73.5567 51.0633 81.0527 60.31 81.0527Z" fill="#88E833" stroke="#0E1C0E" stroke-width="2.5" stroke-linecap="round" stroke-linejoin="round"/>
<path d="M60.3102 71.4846C64.2731 71.4846 67.4856 68.2721 67.4856 64.3092C67.4856 60.3463 64.2731 57.1338 60.3102 57.1338C56.3473 57.1338 53.1348 60.3463 53.1348 64.3092C53.1348 68.2721 56.3473 71.4846 60.3102 71.4846Z" fill="#88E833" stroke="#0E1C0E" stroke-width="2.5" stroke-linecap="round" stroke-linejoin="round"/>
</svg>
