<svg width="121" height="121" viewBox="0 0 121 121" fill="none" xmlns="http://www.w3.org/2000/svg">
<rect width="120.555" height="120.555" rx="10" fill="#88E833"/>
<path d="M39.3921 85.4441L81.2487 42.3916" stroke="#0E1C0E" stroke-width="2.5" stroke-linecap="round" stroke-linejoin="round"/>
<path d="M44.1754 54.3508C48.1383 54.3508 51.3508 51.1383 51.3508 47.1754C51.3508 43.2125 48.1383 40 44.1754 40C40.2125 40 37 43.2125 37 47.1754C37 51.1383 40.2125 54.3508 44.1754 54.3508Z" fill="#88E833" stroke="#0E1C0E" stroke-width="2.5" stroke-linecap="round" stroke-linejoin="round"/>
<path d="M76.465 86.6399C80.4278 86.6399 83.6404 83.4274 83.6404 79.4645C83.6404 75.5016 80.4278 72.2891 76.465 72.2891C72.5021 72.2891 69.2896 75.5016 69.2896 79.4645C69.2896 83.4274 72.5021 86.6399 76.465 86.6399Z" fill="#88E833" stroke="#0E1C0E" stroke-width="2.5" stroke-linecap="round" stroke-linejoin="round"/>
</svg>
