<svg width="121" height="121" viewBox="0 0 121 121" fill="none" xmlns="http://www.w3.org/2000/svg">
<rect width="120.555" height="120.555" rx="10" fill="#88E833"/>
<path d="M60.3099 84.6197C74.8404 84.6197 86.6197 72.8404 86.6197 58.3099C86.6197 43.7793 74.8404 32 60.3099 32C45.7793 32 34 43.7793 34 58.3099C34 72.8404 45.7793 84.6197 60.3099 84.6197Z" fill="#88E833" stroke="#0E1C0E" stroke-width="2.5" stroke-linecap="round" stroke-linejoin="round"/>
<path d="M60.3102 84.6197C67.5755 84.6197 73.4651 72.8404 73.4651 58.3099C73.4651 43.7793 67.5755 32 60.3102 32C53.0449 32 47.1553 43.7793 47.1553 58.3099C47.1553 72.8404 53.0449 84.6197 60.3102 84.6197Z" fill="#88E833" stroke="#0E1C0E" stroke-width="2.5" stroke-linecap="round" stroke-linejoin="round"/>
<path d="M34 58.3096H86.6197" stroke="#0E1C0E" stroke-width="2.5" stroke-linecap="round" stroke-linejoin="round"/>
<path d="M36.9897 45.7529H83.63" stroke="#0E1C0E" stroke-width="2.5" stroke-linecap="round" stroke-linejoin="round"/>
<path d="M36.9897 70.8672H83.63" stroke="#0E1C0E" stroke-width="2.5" stroke-linecap="round" stroke-linejoin="round"/>
</svg>
