<svg width="121" height="121" viewBox="0 0 121 121" fill="none" xmlns="http://www.w3.org/2000/svg">
<rect width="120.555" height="120.555" rx="10" fill="#88E833"/>
<path d="M49.5467 60.0935C58.133 60.0935 65.0935 53.133 65.0935 44.5467C65.0935 35.9605 58.133 29 49.5467 29C40.9605 29 34 35.9605 34 44.5467C34 53.133 40.9605 60.0935 49.5467 60.0935Z" fill="#88E833" stroke="#041A08" stroke-width="2.5" stroke-linecap="round" stroke-linejoin="round"/>
<path d="M49.547 51.7229C53.5099 51.7229 56.7224 48.5104 56.7224 44.5475C56.7224 40.5846 53.5099 37.3721 49.547 37.3721C45.5841 37.3721 42.3716 40.5846 42.3716 44.5475C42.3716 48.5104 45.5841 51.7229 49.547 51.7229Z" fill="#88E833" stroke="#041A08" stroke-width="2.5" stroke-linecap="round" stroke-linejoin="round"/>
<path d="M60.9082 55.9082L85.4242 79.2283" stroke="#041A08" stroke-width="2.5" stroke-linecap="round" stroke-linejoin="round"/>
<path d="M73.4648 67.8668L80.6403 60.6914" stroke="#041A08" stroke-width="2.5" stroke-linecap="round" stroke-linejoin="round"/>
</svg>
