<svg width="121" height="121" viewBox="0 0 121 121" fill="none" xmlns="http://www.w3.org/2000/svg">
<rect width="120.555" height="120.555" rx="10" fill="#88E833"/>
<path d="M37 76.2484C37 46.7495 44.7734 32 60.3201 32C75.8669 32 83.6402 46.7495 83.6402 76.2484" fill="#88E833"/>
<path d="M37 76.2484C37 46.7495 44.7734 32 60.3201 32C75.8669 32 83.6402 46.7495 83.6402 76.2484" stroke="#041A08" stroke-width="2.5" stroke-linecap="round" stroke-linejoin="round"/>
<path d="M42.9795 76.2486C42.9795 53.1278 48.7597 41.5674 60.3201 41.5674C71.8805 41.5674 77.6607 53.1278 77.6607 76.2486" fill="#88E833"/>
<path d="M42.9795 76.2486C42.9795 53.1278 48.7597 41.5674 60.3201 41.5674C71.8805 41.5674 77.6607 53.1278 77.6607 76.2486" stroke="#041A08" stroke-width="2.5" stroke-linecap="round" stroke-linejoin="round"/>
<path d="M50.1548 76.2481C50.1548 60.3028 53.5432 52.3301 60.32 52.3301C67.0967 52.3301 70.4851 60.3028 70.4851 76.2481" fill="#88E833"/>
<path d="M50.1548 76.2481C50.1548 60.3028 53.5432 52.3301 60.32 52.3301C67.0967 52.3301 70.4851 60.3028 70.4851 76.2481" stroke="#041A08" stroke-width="2.5" stroke-linecap="round" stroke-linejoin="round"/>
<path d="M60.3198 79.2383C61.971 79.2383 63.3096 77.8997 63.3096 76.2485C63.3096 74.5973 61.971 73.2588 60.3198 73.2588C58.6686 73.2588 57.3301 74.5973 57.3301 76.2485C57.3301 77.8997 58.6686 79.2383 60.3198 79.2383Z" fill="#88E833" stroke="#041A08" stroke-width="2.5" stroke-linecap="round" stroke-linejoin="round"/>
</svg>
