<svg width="121" height="121" viewBox="0 0 121 121" fill="none" xmlns="http://www.w3.org/2000/svg">
<rect width="120.555" height="120.555" rx="10" fill="#88E833"/>
<path d="M81.5551 59.2228C81.5551 63.53 80.2778 67.7405 77.8849 71.3218C75.492 74.9031 72.0908 77.6944 68.1114 79.3427C64.1321 80.9909 59.7534 81.4222 55.529 80.5819C51.3045 79.7416 47.4241 77.6675 44.3785 74.6219C41.3329 71.5762 39.2587 67.6959 38.4185 63.4714C37.5782 59.247 38.0094 54.8683 39.6577 50.8889C41.306 46.9096 44.0973 43.5084 47.6786 41.1155C51.2599 38.7225 55.4704 37.4453 59.7775 37.4453" fill="#88E833"/>
<path d="M81.5551 59.2228C81.5551 63.53 80.2778 67.7405 77.8849 71.3218C75.492 74.9031 72.0908 77.6944 68.1114 79.3427C64.1321 80.9909 59.7534 81.4222 55.529 80.5819C51.3045 79.7416 47.4241 77.6675 44.3785 74.6219C41.3329 71.5762 39.2587 67.6959 38.4185 63.4714C37.5782 59.247 38.0094 54.8683 39.6577 50.8889C41.306 46.9096 44.0973 43.5084 47.6786 41.1155C51.2599 38.7225 55.4704 37.4453 59.7775 37.4453" stroke="#041A08" stroke-width="2.5" stroke-linecap="round" stroke-linejoin="round"/>
<path d="M53.344 32L59.7783 37.4444L54.3339 43.8787" fill="#88E833"/>
<path d="M53.344 32L59.7783 37.4444L54.3339 43.8787" stroke="#041A08" stroke-width="2.5" stroke-linecap="round" stroke-linejoin="round"/>
</svg>
