<svg width="121" height="121" viewBox="0 0 121 121" fill="none" xmlns="http://www.w3.org/2000/svg">
<rect width="120.555" height="120.555" rx="10" fill="#88E833"/>
<path d="M82.0206 68.7021H46.1435C45.1527 68.7021 44.3496 69.5053 44.3496 70.496V77.6714C44.3496 78.6621 45.1527 79.4653 46.1435 79.4653H82.0206C83.0113 79.4653 83.8144 78.6621 83.8144 77.6714V70.496C83.8144 69.5053 83.0113 68.7021 82.0206 68.7021Z" fill="#88E833" stroke="#041A08" stroke-width="2.5" stroke-linecap="round" stroke-linejoin="round"/>
<path d="M89.1966 54.3506H38.9687C37.9779 54.3506 37.1748 55.1537 37.1748 56.1444V63.3199C37.1748 64.3106 37.9779 65.1137 38.9687 65.1137H89.1966C90.1873 65.1137 90.9904 64.3106 90.9904 63.3199V56.1444C90.9904 55.1537 90.1873 54.3506 89.1966 54.3506Z" fill="#88E833" stroke="#041A08" stroke-width="2.5" stroke-linecap="round" stroke-linejoin="round"/>
<path d="M96.3726 40H31.7939C30.8031 40 30 40.8031 30 41.7939V48.9693C30 49.96 30.8031 50.7631 31.7939 50.7631H96.3726C97.3633 50.7631 98.1665 49.96 98.1665 48.9693V41.7939C98.1665 40.8031 97.3633 40 96.3726 40Z" fill="#88E833" stroke="#041A08" stroke-width="2.5" stroke-linecap="round" stroke-linejoin="round"/>
</svg>
