<svg width="121" height="121" viewBox="0 0 121 121" fill="none" xmlns="http://www.w3.org/2000/svg">
<rect width="120.555" height="120.555" rx="10" fill="#88E833"/>
<path d="M82.0864 54.6094H40.2608C39.0122 54.6094 38 55.6216 38 56.8702V81.7395C38 82.9881 39.0122 84.0003 40.2608 84.0003H82.0864C83.335 84.0003 84.3473 82.9881 84.3473 81.7395V56.8702C84.3473 55.6216 83.335 54.6094 82.0864 54.6094Z" fill="#88E833" stroke="#0E1C0E" stroke-width="2.5" stroke-linecap="round" stroke-linejoin="round"/>
<path d="M45.9127 54.6084V45.5651C45.9127 36.5217 50.9996 32 61.1734 32C71.3472 32 76.4341 36.5217 76.4341 45.5651V54.6084" fill="#88E833"/>
<path d="M45.9127 54.6084V45.5651C45.9127 36.5217 50.9996 32 61.1734 32C71.3472 32 76.4341 36.5217 76.4341 45.5651V54.6084" stroke="#0E1C0E" stroke-width="2.5" stroke-linecap="round" stroke-linejoin="round"/>
<path d="M61.174 73.8246C63.6713 73.8246 65.6957 71.8002 65.6957 69.3029C65.6957 66.8057 63.6713 64.7812 61.174 64.7812C58.6768 64.7812 56.6523 66.8057 56.6523 69.3029C56.6523 71.8002 58.6768 73.8246 61.174 73.8246Z" fill="#88E833" stroke="#0E1C0E" stroke-width="2.5" stroke-linecap="round" stroke-linejoin="round"/>
</svg>
